<mxfile host="app.diagrams.net" modified="2023-12-08T09:26:45.572Z" agent="Mozilla/5.0 (Macintosh; Intel Mac OS X 10_15_7) AppleWebKit/537.36 (KHTML, like Gecko) Chrome/119.0.0.0 Safari/537.36 Edg/119.0.0.0" etag="aiJ2SO5JmwL9tqYEJvuf" version="22.1.7" type="github">
  <diagram id="C5RBs43oDa-KdzZeNtuy" name="Page-1">
    <mxGraphModel dx="1368" dy="924" grid="1" gridSize="10" guides="1" tooltips="1" connect="1" arrows="1" fold="1" page="1" pageScale="1" pageWidth="827" pageHeight="1169" math="0" shadow="0">
      <root>
        <mxCell id="WIyWlLk6GJQsqaUBKTNV-0" />
        <mxCell id="WIyWlLk6GJQsqaUBKTNV-1" parent="WIyWlLk6GJQsqaUBKTNV-0" />
        <mxCell id="Culc1Ef6eh6lBD4fiG-q-4" style="edgeStyle=orthogonalEdgeStyle;rounded=0;orthogonalLoop=1;jettySize=auto;html=1;" edge="1" parent="WIyWlLk6GJQsqaUBKTNV-1" source="Culc1Ef6eh6lBD4fiG-q-1" target="Culc1Ef6eh6lBD4fiG-q-5">
          <mxGeometry relative="1" as="geometry">
            <mxPoint x="490" y="500" as="targetPoint" />
            <Array as="points">
              <mxPoint x="280" y="350" />
              <mxPoint x="280" y="350" />
            </Array>
          </mxGeometry>
        </mxCell>
        <mxCell id="Culc1Ef6eh6lBD4fiG-q-25" value="1" style="edgeLabel;html=1;align=center;verticalAlign=middle;resizable=0;points=[];" vertex="1" connectable="0" parent="Culc1Ef6eh6lBD4fiG-q-4">
          <mxGeometry x="-0.1713" relative="1" as="geometry">
            <mxPoint as="offset" />
          </mxGeometry>
        </mxCell>
        <mxCell id="Culc1Ef6eh6lBD4fiG-q-1" value="BaseServant" style="rounded=1;whiteSpace=wrap;html=1;" vertex="1" parent="WIyWlLk6GJQsqaUBKTNV-1">
          <mxGeometry x="220" y="230" width="120" height="50" as="geometry" />
        </mxCell>
        <mxCell id="Culc1Ef6eh6lBD4fiG-q-13" style="edgeStyle=orthogonalEdgeStyle;rounded=0;orthogonalLoop=1;jettySize=auto;html=1;entryX=0.999;entryY=0.578;entryDx=0;entryDy=0;entryPerimeter=0;" edge="1" parent="WIyWlLk6GJQsqaUBKTNV-1" source="Culc1Ef6eh6lBD4fiG-q-2" target="Culc1Ef6eh6lBD4fiG-q-5">
          <mxGeometry relative="1" as="geometry">
            <mxPoint x="550" y="420" as="targetPoint" />
            <Array as="points">
              <mxPoint x="550" y="419" />
            </Array>
          </mxGeometry>
        </mxCell>
        <mxCell id="Culc1Ef6eh6lBD4fiG-q-26" value="2" style="edgeLabel;html=1;align=center;verticalAlign=middle;resizable=0;points=[];" vertex="1" connectable="0" parent="Culc1Ef6eh6lBD4fiG-q-13">
          <mxGeometry x="-0.7221" y="-1" relative="1" as="geometry">
            <mxPoint as="offset" />
          </mxGeometry>
        </mxCell>
        <mxCell id="Culc1Ef6eh6lBD4fiG-q-2" value="StreamingServant" style="rounded=1;whiteSpace=wrap;html=1;" vertex="1" parent="WIyWlLk6GJQsqaUBKTNV-1">
          <mxGeometry x="480" y="230" width="140" height="50" as="geometry" />
        </mxCell>
        <mxCell id="Culc1Ef6eh6lBD4fiG-q-15" value="" style="edgeStyle=orthogonalEdgeStyle;rounded=0;orthogonalLoop=1;jettySize=auto;html=1;entryX=0.5;entryY=0;entryDx=0;entryDy=0;" edge="1" parent="WIyWlLk6GJQsqaUBKTNV-1" source="Culc1Ef6eh6lBD4fiG-q-5" target="Culc1Ef6eh6lBD4fiG-q-22">
          <mxGeometry relative="1" as="geometry">
            <mxPoint x="360" y="500" as="targetPoint" />
          </mxGeometry>
        </mxCell>
        <mxCell id="Culc1Ef6eh6lBD4fiG-q-16" value="创建items&lt;br&gt;item绑定v和vm" style="edgeLabel;html=1;align=center;verticalAlign=middle;resizable=0;points=[];" vertex="1" connectable="0" parent="Culc1Ef6eh6lBD4fiG-q-15">
          <mxGeometry x="-0.1802" y="-3" relative="1" as="geometry">
            <mxPoint as="offset" />
          </mxGeometry>
        </mxCell>
        <mxCell id="Culc1Ef6eh6lBD4fiG-q-5" value="&lt;div&gt;CPKCarMainItemFactory&lt;/div&gt;" style="rounded=1;whiteSpace=wrap;html=1;" vertex="1" parent="WIyWlLk6GJQsqaUBKTNV-1">
          <mxGeometry x="185" y="390" width="190" height="50" as="geometry" />
        </mxCell>
        <mxCell id="Culc1Ef6eh6lBD4fiG-q-21" value="" style="edgeStyle=orthogonalEdgeStyle;rounded=0;orthogonalLoop=1;jettySize=auto;html=1;" edge="1" parent="WIyWlLk6GJQsqaUBKTNV-1" source="Culc1Ef6eh6lBD4fiG-q-14" target="Culc1Ef6eh6lBD4fiG-q-20">
          <mxGeometry relative="1" as="geometry" />
        </mxCell>
        <mxCell id="Culc1Ef6eh6lBD4fiG-q-14" value="CPKStandardExtendListAdapter" style="whiteSpace=wrap;html=1;rounded=1;" vertex="1" parent="WIyWlLk6GJQsqaUBKTNV-1">
          <mxGeometry x="190" y="650" width="180" height="65" as="geometry" />
        </mxCell>
        <mxCell id="Culc1Ef6eh6lBD4fiG-q-20" value="页面列表" style="whiteSpace=wrap;html=1;rounded=1;" vertex="1" parent="WIyWlLk6GJQsqaUBKTNV-1">
          <mxGeometry x="220" y="750" width="120" height="60" as="geometry" />
        </mxCell>
        <mxCell id="Culc1Ef6eh6lBD4fiG-q-23" style="edgeStyle=orthogonalEdgeStyle;rounded=0;orthogonalLoop=1;jettySize=auto;html=1;entryX=0.5;entryY=0;entryDx=0;entryDy=0;" edge="1" parent="WIyWlLk6GJQsqaUBKTNV-1" source="Culc1Ef6eh6lBD4fiG-q-22" target="Culc1Ef6eh6lBD4fiG-q-14">
          <mxGeometry relative="1" as="geometry" />
        </mxCell>
        <mxCell id="Culc1Ef6eh6lBD4fiG-q-24" value="根据id和sortid&lt;br&gt;处理替换和排序逻辑" style="edgeLabel;html=1;align=center;verticalAlign=middle;resizable=0;points=[];" vertex="1" connectable="0" parent="Culc1Ef6eh6lBD4fiG-q-23">
          <mxGeometry x="-0.2" relative="1" as="geometry">
            <mxPoint as="offset" />
          </mxGeometry>
        </mxCell>
        <mxCell id="Culc1Ef6eh6lBD4fiG-q-22" value="DataSource" style="whiteSpace=wrap;html=1;rounded=1;" vertex="1" parent="WIyWlLk6GJQsqaUBKTNV-1">
          <mxGeometry x="190" y="520" width="180" height="65" as="geometry" />
        </mxCell>
      </root>
    </mxGraphModel>
  </diagram>
</mxfile>
